# xmcd
#
# Track frame offsets: 
#        150
#        15437
#        31774
#        50890
#        68061
#        87819
#        102144
#        119452
#        136354
#        151587
#        169766
#        187753
#
# Disc length: 2676 seconds
#
# Revision: 0
# Processed by: cddbd v1.5.2PL0 Copyright (c) Steve Scherf et al.
# Submitted via: ExactAudioCopy v1.0b1
#
DISCID=8a0a720c
DTITLE=The McClymonts - Chaos and Bright Lights
DYEAR=2007
DGENRE=Country
TTITLE0=My Life Again
TTITLE1=Save Yourself
TTITLE2=Don't Tie My Hands
TTITLE3=Good Cry
TTITLE4=Settle Down
TTITLE5=Way Too Late
TTITLE6=You Were Right
TTITLE7=Shotgun
TTITLE8=Favourite Boyfriend of the Year
TTITLE9=Finally Over Blue
TTITLE10=Till You Love Me
TTITLE11=Ghost Town
EXTD=
EXTT0=
EXTT1=
EXTT2=
EXTT3=
EXTT4=
EXTT5=
EXTT6=
EXTT7=
EXTT8=
EXTT9=
EXTT10=
EXTT11=
PLAYORDER=
